<mxfile host="app.diagrams.net" modified="2023-06-04T14:41:39.969Z" agent="Mozilla/5.0 (Windows NT 10.0; Win64; x64) AppleWebKit/537.36 (KHTML, like Gecko) Chrome/112.0.0.0 Whale/3.20.182.14 Safari/537.36" version="21.3.7" etag="Rjsfmmplza3s7xmzkWjE" type="github">
  <diagram name="페이지-1" id="Dr6S7IippXcXK17swLm6">
    <mxGraphModel>
      <root>
        <mxCell id="0" />
        <mxCell id="1" parent="0" />
      </root>
    </mxGraphModel>
  </diagram>
</mxfile>
